<svg width="25" height="25" viewBox="0 0 25 25" fill="none" xmlns="http://www.w3.org/2000/svg">
<path d="M4.58333 21.875L11.1458 15.3125C11.6667 15.7292 12.2656 16.059 12.9427 16.3021C13.6198 16.5451 14.3403 16.6667 15.1042 16.6667C16.9965 16.6667 18.5979 16.0115 19.9083 14.701C21.2194 13.3899 21.875 11.7882 21.875 9.89583C21.875 8.00347 21.2194 6.40174 19.9083 5.09063C18.5979 3.78021 16.9965 3.125 15.1042 3.125C13.2118 3.125 11.6101 3.78021 10.299 5.09063C8.98854 6.40174 8.33333 8.00347 8.33333 9.89583C8.33333 10.6597 8.45486 11.3802 8.69792 12.0573C8.94097 12.7344 9.27083 13.3333 9.6875 13.8542L3.125 20.4167L4.58333 21.875ZM15.1042 14.5833C13.8021 14.5833 12.6951 14.1278 11.7833 13.2167C10.8722 12.3049 10.4167 11.1979 10.4167 9.89583C10.4167 8.59375 10.8722 7.4868 11.7833 6.575C12.6951 5.66389 13.8021 5.20833 15.1042 5.20833C16.4062 5.20833 17.5132 5.66389 18.425 6.575C19.3361 7.4868 19.7917 8.59375 19.7917 9.89583C19.7917 11.1979 19.3361 12.3049 18.425 13.2167C17.5132 14.1278 16.4062 14.5833 15.1042 14.5833Z" fill="#B1B8C0"/>
</svg>
